{"title":"Invoking.5.2018.WEB-DL.XviD.MP3-FGT","magnet":"magnet:?xt=urn:btih:398541e368a75f5893fc3a8791b3ca048f2f42c0&dn=Invoking.5.2018.WEB-DL.XviD.MP3-FGT&tr=udp%3A%2F%2Ftracker.leechers-paradise.org%3A6969&tr=udp%3A%2F%2Fzer0day.ch%3A1337&tr=udp%3A%2F%2Fopen.demonii.com%3A1337&tr=udp%3A%2F%2Ftracker.coppersurfer.tk%3A6969&tr=udp%3A%2F%2Fexodus.desync.com%3A6969","uploader":"Linker_mza","categoryP":"games","categoryS":"pc","size":"1315958737","seeders":"0","leechers":"0","description":"Video\r\nID : 0\r\nFormat : MPEG-4 Visual\r\nFormat profile : Simple@L5\r\nFormat settings, BVOP : No\r\nFormat settings, QPel : No\r\nFormat settings, GMC : No warppoints\r\nFormat settings, Matrix : Default (H.263)\r\nCodec ID : XVID\r\nCodec ID/Hint : XviD\r\nDuration : 1 h 19 min\r\nBit rate : 2 003 kb/s\r\nWidth : 720 pixels\r\nHeight : 304 pixels\r\nDisplay aspect ratio : 2.40:1\r\nFrame rate : 23.976 (24000/1001) FPS\r\nColor space : YUV\r\nChroma subsampling : 4:2:0\r\nBit depth : 8 bits\r\nScan type : Progressive\r\nCompression mode : Lossy\r\nBits/(Pixel*Frame) : 0.382\r\nStream size : 1.11 GiB (91%)\r\nWriting library : Lavc58.1.100\r\n\r\nAudio\r\nID : 1\r\nFormat : MPEG Audio\r\nFormat version : Version 1\r\nFormat profile : Layer 3\r\nFormat settings : Joint stereo / MS Stereo\r\nCodec ID : 55\r\nCodec ID/Hint : MP3\r\nDuration : 1 h 19 min\r\nBit rate mode : Constant\r\nBit rate : 192 kb/s\r\nChannel(s) : 2 channels\r\nSampling rate : 48.0 kHz\r\nCompression mode : Lossy\r\nStream size : 109 MiB (9%)\r\nAlignment : Aligned on interleaves\r\nInterleave, duration : 24 ms (0.58 video frame)\r\nInterleave, preload duration : 504 ms","last_updated":"2018-11-13T12:28:51.955Z","parsed":{"xt":"urn:btih:398541e368a75f5893fc3a8791b3ca048f2f42c0","dn":"Invoking.5.2018.WEB-DL.XviD.MP3-FGT","tr":["udp://exodus.desync.com:6969","udp://open.demonii.com:1337","udp://tracker.coppersurfer.tk:6969","udp://tracker.leechers-paradise.org:6969","udp://zer0day.ch:1337"],"infoHash":"398541e368a75f5893fc3a8791b3ca048f2f42c0","infoHashBuffer":{"type":"Buffer","data":[57,133,65,227,104,167,95,88,147,252,58,135,145,179,202,4,143,47,66,192]},"name":"Invoking.5.2018.WEB-DL.XviD.MP3-FGT","announce":["udp://exodus.desync.com:6969","udp://open.demonii.com:1337","udp://tracker.coppersurfer.tk:6969","udp://tracker.leechers-paradise.org:6969","udp://zer0day.ch:1337"],"urlList":[]}}